<svg class="h-6 w-6" fill="currentColor" xmlns="http://www.w3.org/2000/svg" viewBox="0 0 24 24"><circle cx="8" cy="3.275" r="3"/><path d="M12,9.776a2,2,0,0,0-2-2H9.467a.25.25,0,0,0-.208.111L8.208,9.464a.25.25,0,0,1-.416,0L6.741,7.887a.25.25,0,0,0-.208-.111H6a2,2,0,0,0-2,2v1a.5.5,0,0,0,.5.5h7a.5.5,0,0,0,.5-.5Z"/><path d="M.5,23.225a.5.5,0,0,0,.5.5H23a.5.5,0,0,0,.5-.5v-8.5a2.5,2.5,0,0,0-2.5-2.5H3a2.5,2.5,0,0,0-2.5,2.5ZM12,14.276a4,4,0,1,1-4,4,4,4,0,0,1,4-4Z"/><path d="M12,18.025a.75.75,0,0,0-.75.75v1.5a.75.75,0,0,0,1.5,0v-1.5A.75.75,0,0,0,12,18.025Z"/><circle cx="12" cy="16.276" r="1"/></svg>