<svg class="h-6 w-6" fill="currentColor" xmlns="http://www.w3.org/2000/svg" viewBox="0 0 24 24"><title>family-home</title><path d="M23.488,6.127,12.926.226A2.009,2.009,0,0,0,11.05.239L.512,6.125a1,1,0,0,0,.976,1.746L11.853,2.053a.252.252,0,0,1,.244,0l10.415,5.82a1,1,0,0,0,.976-1.746Z"></path><circle cx="12" cy="10" r="2.5"></circle><path d="M12,13a3.5,3.5,0,0,0-3.5,3.5v2A.5.5,0,0,0,9,19h.594a.5.5,0,0,1,.5.451l.41,4.1A.5.5,0,0,0,11,24h2a.5.5,0,0,0,.5-.45l.41-4.1a.5.5,0,0,1,.5-.451H15a.5.5,0,0,0,.5-.5v-2A3.5,3.5,0,0,0,12,13Z"></path><circle cx="20.25" cy="11.25" r="2.25"></circle><path d="M20.25,14A3.254,3.254,0,0,0,17,17.25V19a.5.5,0,0,0,.5.5h.471a.5.5,0,0,1,.5.45l.367,3.6a.5.5,0,0,0,.5.449h1.834a.5.5,0,0,0,.5-.449l.367-3.6a.5.5,0,0,1,.5-.45H23a.5.5,0,0,0,.5-.5V17.25A3.254,3.254,0,0,0,20.25,14Z"></path><circle cx="3.75" cy="11.25" r="2.25"></circle><path d="M3.75,14A3.254,3.254,0,0,0,.5,17.25V19a.5.5,0,0,0,.5.5h.471a.5.5,0,0,1,.5.45l.367,3.6a.5.5,0,0,0,.5.449H4.667a.5.5,0,0,0,.5-.449l.367-3.6a.5.5,0,0,1,.5-.45H6.5A.5.5,0,0,0,7,19V17.25A3.254,3.254,0,0,0,3.75,14Z"></path></svg>