<?xml version="1.0" encoding="utf-8"?>
<!-- Generator: Adobe Illustrator 24.2.3, SVG Export Plug-In . SVG Version: 6.00 Build 0)  -->
<svg version="1.1" id="Layer_1" xmlns="http://www.w3.org/2000/svg" xmlns:xlink="http://www.w3.org/1999/xlink" x="0px" y="0px"
	 viewBox="0 0 420 125" style="enable-background:new 0 0 420 125;" xml:space="preserve">
<style type="text/css">
	.st0{fill:#939BA0;}
	.st1{fill:#542987;}
	.st2{fill:#FFFFFF;}
	.st3{fill:#552988;}
	.st4{fill:#414042;}
</style>
<g>
	<g>
		<path class="st0" d="M205.5,46.2c2.3-0.1,4.4-1.1,6.1-2.7v1.4c0,0.3,0,0.5,0.1,0.8c0.1,0.3,0.3,0.5,0.6,0.5h0
			c0.9-0.2,1.8-0.5,2.6-0.8c1.2-0.4,2.2-0.7,2.8-0.8h0.2v-1.3H217c-0.5,0.1-1,0-1.5-0.2c-0.2-0.1-0.3-0.4-0.3-1.3v-27
			c0-0.3-0.1-0.8-0.6-0.8c-0.4,0.1-0.7,0.3-1,0.5c-1.3,0.7-2.7,1.3-4.1,1.7l-0.2,0.1v1l0.2,0.1c1.6,0.5,1.9,0.3,2,2.9v6.8
			c-5.4-1.9-11.3,0.8-13.2,6.2c-0.4,1.2-0.7,2.5-0.6,3.8C197.7,41.8,200.5,46.2,205.5,46.2z M207.5,28.4c1.7,0,4.1,0.7,4.1,3.5v9.3
			c0,0.6-0.6,1.2-1.4,1.5c-0.7,0.4-1.5,0.6-2.3,0.6c-3.5,0-6.2-3.2-6.2-7.6C201.7,30.4,204.7,28.4,207.5,28.4L207.5,28.4z"/>
		<path class="st0" d="M193.1,43.9c-0.3-0.1-0.4-0.3-0.4-1l0-10.5c0.1-1.5-0.3-2.9-1.1-4.2c-0.9-1.2-2.3-1.9-3.8-1.8
			c-2.7,0-4.6,1.3-6.8,2.8l0-2.2c0-0.2,0-0.3-0.1-0.5c-0.1-0.1-0.2-0.2-0.4-0.2l-0.1,0l0,0c-1.7,0.7-3.5,1.4-5.3,1.9l-0.2,0.1l0,1.1
			l0.1,0.1c1.9,0.8,2.2,1,2.2,2.5V43c0,0.6-0.2,0.8-0.4,1c-0.4,0.1-0.9,0.2-1.3,0.1l-0.7,0l-0.2,0v1.5l0.2,0c1.5,0,2.9-0.1,4.4-0.1
			c1.5,0,2.9,0.1,4.3,0.1h0.2v-1.5l-1,0c-0.5,0-0.9,0-1.3-0.1c-0.3-0.1-0.4-0.3-0.4-1l0-11.9c1.3-1,2.9-1.6,4.5-1.8
			c2.2,0,3.5,1,3.5,3.2V43c0,0.6-0.2,0.8-0.4,1c-0.4,0.1-0.9,0.2-1.3,0.1h-1v1.5l0.2,0c1.5,0,2.9-0.1,4.4-0.1c1.5,0,2.9,0.1,4.3,0.1
			h0.2v-1.5h-1C194,44.1,193.5,44.1,193.1,43.9z"/>
		<path class="st0" d="M156.4,33.8c1,0,2.5-0.6,2.5-1.9c0-1.4,1.1-2.6,2.5-2.6c0.1,0,0.2,0,0.3,0c2.5,0,3.7,1.1,3.7,3.3V35
			c-4.3,1.5-6.9,2.4-8.4,3.3c-1.4,0.7-2.2,2.2-2.2,3.7c0.1,2.4,2.1,4.3,4.5,4.2c0,0,0.1,0,0.1,0c2.4,0,4.3-1.2,6.1-2.7
			c0.1,1.5,1.2,2.7,2.7,2.7c1.7,0,3-1.2,4.2-2.3l0.1-0.1l-0.1-0.2l-0.5-1l-0.2,0.3c-0.3,0.4-0.8,0.6-1.3,0.6c-0.7,0-1.2-0.4-1.2-2.1
			V30.2c-0.1-2.5-3.3-3.6-5.2-3.6c-1.6,0-2.4,0.6-3.8,1.3c-2.8,1.5-4.8,2.5-4.8,4.8C155.4,33.3,155.8,33.8,156.4,33.8
			C156.3,33.8,156.3,33.8,156.4,33.8z M165.4,41.6c-1.3,1.2-2.5,2.2-4.2,2.2c-1.5,0-2.6-1.2-2.6-2.7c-0.1-2.6,4.6-3.7,6.9-4.5V41.6z
			"/>
		<path class="st0" d="M149.4,43.9c-0.3-0.1-0.4-0.3-0.4-1V14.9c0-0.2,0-0.4-0.1-0.5c-0.1-0.2-0.3-0.3-0.5-0.3
			c-0.4,0.1-0.7,0.3-1,0.5c-1.3,0.7-2.7,1.3-4.1,1.7l-0.2,0.1v1l0.2,0.1c1.6,0.5,1.9,0.3,2,2.9V43c0,0.6-0.2,0.8-0.4,1
			c-0.4,0.1-0.9,0.2-1.3,0.1h-1v1.5l0.2,0c1.5,0,3-0.1,4.4-0.1c1.5,0,2.9,0.1,4.3,0.1h0.2v-1.5h-0.9
			C150.3,44.1,149.8,44.1,149.4,43.9z"/>
		<path class="st0" d="M137.6,42.3l-6.7-7.4l4.3-3.9c1.2-1.4,3-2.2,4.9-2.2h0.2v-1.5l-0.2,0c-1.3,0-2.5,0.1-3.8,0.1
			c-1.4,0-2.9,0-4.3-0.1l-0.2,0v1.5h0.2c0.4,0,0.8,0,1.2,0.1c0.4,0.1,0.6,0.2,0.6,0.5c0,0.3-0.9,1.4-1.5,1.9l-4.3,3.8l-0.9,0.2V14.9
			c0-0.3-0.1-0.8-0.6-0.8c-0.4,0.1-0.7,0.3-1,0.5c-1.3,0.7-2.7,1.3-4.1,1.7l-0.2,0.1v1l0.2,0.1c1.6,0.5,1.9,0.3,2,2.9V43
			c0,0.6-0.2,0.8-0.4,1c-0.4,0.1-0.9,0.2-1.3,0.1h-1v1.5l0.2,0c1.5,0,2.9-0.1,4.4-0.1c1.5,0,2.9,0.1,4.3,0.1l0.2,0v-1.5h-1
			c-0.5,0-0.9,0-1.3-0.1c-0.3-0.1-0.4-0.3-0.4-1v-6.3h0.5l6.4,7.2c0.4,0.5,0.9,1.1,1.3,1.6l0.1,0.1l0.1,0c0.9,0,1.8-0.1,2.7-0.1
			c1.4,0,2.1,0,3.2,0.1l0.2,0v-1.5l-0.2,0C139.3,44.1,139.2,44,137.6,42.3z"/>
		<path class="st0" d="M116.8,26.6c-2.4,0-4,2.2-5,3.7v-3c0-0.2,0-0.4-0.1-0.6c-0.1-0.1-0.3-0.2-0.5-0.2c-0.6,0.2-1.1,0.4-1.6,0.7
			c-0.8,0.4-2,1-3.4,1.6L106,29v0.9l0.1,0.1c0.7,0.4,2,0.6,2,1.6V43c0,0.6-0.2,0.8-0.4,1c-0.4,0.1-0.9,0.2-1.3,0.1H105v1.5l0.2,0
			c1.5,0,3.2-0.1,4.8-0.1c1.7,0,3.4,0,5.7,0.1l0.2,0v-1.5h-2.5c-0.4,0-0.9,0-1.3-0.1c-0.3-0.1-0.4-0.3-0.4-1l0-9.5
			c0-0.9,0.4-1.8,1.1-2.4c0.4-0.4,1-0.6,1.6-0.7c0.5,0,0.9,0.1,1.3,0.4c0.4,0.3,0.9,0.5,1.4,0.5c1.2,0,2.2-1.1,2.1-2.3c0,0,0,0,0,0
			C119.3,27.6,118.2,26.6,116.8,26.6C116.8,26.6,116.8,26.6,116.8,26.6z"/>
		<path class="st0" d="M86.6,33.8c1,0,2.5-0.6,2.5-1.9c0-1.4,1.1-2.6,2.5-2.6c0.1,0,0.2,0,0.3,0c2.5,0,3.7,1.1,3.7,3.3V35
			c-4.3,1.5-6.9,2.4-8.4,3.3c-1.4,0.7-2.2,2.2-2.2,3.7c0.1,2.4,2.1,4.3,4.5,4.2c0.1,0,0.1,0,0.2,0c2.4,0,4.3-1.2,6.1-2.7
			c0.1,1.5,1.2,2.7,2.7,2.7c1.7,0,3-1.2,4.2-2.3l0.1-0.1l-0.1-0.2l-0.5-1L102,43c-0.3,0.4-0.8,0.6-1.3,0.6c-0.7,0-1.2-0.4-1.2-2.1
			l0-11.2c-0.1-2.5-3.3-3.6-5.2-3.6c-1.6,0-2.4,0.6-3.8,1.3c-2.8,1.5-4.8,2.5-4.8,4.8C85.6,33.3,86.1,33.8,86.6,33.8
			C86.6,33.8,86.6,33.8,86.6,33.8z M95.7,41.6c-1.3,1.2-2.5,2.2-4.2,2.2c-1.5,0-2.6-1.2-2.6-2.7c-0.1-2.6,4.6-3.7,6.9-4.5V41.6z"/>
		<path class="st0" d="M75.2,16.8c-1.7,0-3.1,0.1-4.5,0.1c-1.8,0-3.7,0-5.5-0.1l-0.3,0l0,0.2l0,1.3h0.2c1.5,0,2.3,0.2,2.7,0.7
			c0.4,0.5,0.6,1.5,0.6,3v19.3c0,1.4-0.4,2-0.9,2.3c-0.8,0.3-1.7,0.4-2.5,0.4l-0.2,0v1.5l0.2,0c2,0,3.9-0.1,5.9-0.1
			c1.8,0,3.5,0.1,5.5,0.1h0.2l0-1.5l-0.2,0c-0.9,0.1-1.8-0.1-2.6-0.4c-0.6-0.3-0.9-0.9-0.9-2.3V18.7c0.5-0.1,1-0.1,1.5-0.1
			c2.6,0,6.4,1.5,6.4,7c0,2.9-1.5,6.1-4.8,6.1c-0.5,0-1,0-1.5-0.1l-0.3,0v1.9h0.2c0.6,0,1.3,0,2.1,0c4.4,0,9-3.4,9-8.4
			C85.7,18.6,79.5,16.8,75.2,16.8z"/>
	</g>
	<rect class="st1" width="57.1" height="60"/>
	<path class="st2" d="M29.7,15.9l9-5.8c0.2-0.1,0.2-0.3,0.1-0.5c0,0,0,0,0,0l0,0c-0.1-0.2-0.3-0.2-0.5-0.1c-0.2,0.1-8.7,5.4-8.7,5.4
		c0-0.4-0.2-0.8-0.6-1l-8.4-4.5c-0.5-0.3-1.2-0.1-1.5,0.5c0,0,0,0,0,0l0,0c-0.3,0.5-0.1,1.2,0.5,1.5c0,0,0,0,0,0
		c0,0,7.9,4.2,8.4,4.5C28.4,16.2,29.1,16.2,29.7,15.9z"/>
	<path class="st2" d="M29.7,20.3l9-5.8c0.2-0.1,0.2-0.3,0.1-0.5c0,0,0,0,0,0l0,0c-0.1-0.2-0.3-0.2-0.5-0.1c-0.2,0.1-8.7,5.4-8.7,5.4
		c0-0.4-0.2-0.8-0.6-1l-8.4-4.5c-0.5-0.3-1.2-0.1-1.5,0.5c0,0,0,0,0,0l0,0c-0.3,0.5-0.1,1.2,0.5,1.5c0,0,7.9,4.2,8.4,4.5
		C28.4,20.7,29.1,20.7,29.7,20.3z"/>
	<path class="st2" d="M29.7,24.8l9-5.8c0.2-0.1,0.2-0.3,0.1-0.5c0,0,0,0,0,0l0,0c-0.1-0.2-0.3-0.2-0.5-0.1c-0.2,0.1-8.7,5.4-8.7,5.4
		c0-0.4-0.2-0.8-0.6-1l-8.4-4.5c-0.5-0.3-1.2-0.1-1.5,0.5c0,0,0,0,0,0l0,0c-0.3,0.5-0.1,1.2,0.5,1.5c0,0,0,0,0,0
		c0,0,7.9,4.2,8.4,4.5C28.4,25.1,29.1,25.1,29.7,24.8z"/>
	<path class="st2" d="M29.7,29.2l18.9-12.1c0.2-0.1,0.2-0.3,0.1-0.5l0,0c-0.1-0.2-0.3-0.2-0.5-0.1C48,16.6,29.5,28.2,29.5,28.2
		c0-0.4-0.2-0.8-0.6-1L10,17.2c-0.5-0.3-1.2-0.1-1.5,0.5l0,0c-0.3,0.5-0.1,1.2,0.5,1.5c0,0,0,0,0,0c0,0,18.3,9.7,18.9,10
		C28.4,29.6,29.1,29.6,29.7,29.2z"/>
	<path class="st2" d="M29.7,33.6l18.9-12.1c0.2-0.1,0.2-0.3,0.1-0.5l0,0c-0.1-0.2-0.3-0.2-0.5-0.1C48,21.1,29.5,32.7,29.5,32.7
		c0-0.4-0.2-0.8-0.6-1L10,21.7c-0.5-0.3-1.2-0.1-1.5,0.5c0,0,0,0,0,0l0,0c-0.3,0.5-0.1,1.2,0.5,1.5c0,0,0,0,0,0
		c0,0,18.3,9.7,18.9,10C28.4,34,29.1,34,29.7,33.6z"/>
	<path class="st2" d="M29.7,38.1L48.5,26c0.2-0.1,0.2-0.3,0.1-0.5l0,0c-0.1-0.2-0.3-0.2-0.5-0.1C48,25.5,29.5,37.1,29.5,37.1
		c0-0.4-0.2-0.8-0.6-1L10,26.1c-0.5-0.3-1.2-0.1-1.5,0.5l0,0c-0.3,0.5-0.1,1.2,0.5,1.5c0,0,18.3,9.7,18.9,10
		C28.4,38.5,29.1,38.5,29.7,38.1z"/>
	<path class="st2" d="M29.7,42.5l9-5.8c0.2-0.1,0.2-0.3,0.1-0.5c0,0,0,0,0,0l0,0c-0.1-0.2-0.3-0.2-0.5-0.1c-0.2,0.1-8.7,5.4-8.7,5.4
		c0-0.4-0.2-0.8-0.6-1l-8.4-4.5c-0.5-0.3-1.2-0.1-1.5,0.5l0,0c-0.3,0.5-0.1,1.2,0.5,1.5c0,0,7.9,4.2,8.4,4.5
		C28.4,42.9,29.1,42.9,29.7,42.5z"/>
	<path class="st2" d="M29.7,47l9-5.8c0.2-0.1,0.2-0.3,0.1-0.5c0,0,0,0,0,0l0,0c-0.1-0.2-0.3-0.2-0.5-0.1c-0.2,0.1-8.7,5.4-8.7,5.4
		c0-0.4-0.2-0.8-0.6-1l-8.4-4.5c-0.5-0.3-1.2-0.1-1.5,0.5c0,0,0,0,0,0l0,0c-0.3,0.5-0.1,1.2,0.5,1.5c0,0,7.9,4.2,8.4,4.5
		C28.4,47.4,29.1,47.4,29.7,47z"/>
	<path class="st2" d="M29.7,51.4l9-5.8c0.2-0.1,0.2-0.3,0.1-0.5c0,0,0,0,0,0l0,0c-0.1-0.2-0.3-0.2-0.5-0.1c-0.2,0.1-8.7,5.4-8.7,5.4
		c0-0.4-0.2-0.8-0.6-1L20.5,45c-0.5-0.3-1.2-0.1-1.5,0.5c0,0,0,0,0,0l0,0c-0.3,0.5-0.1,1.2,0.5,1.5c0,0,7.9,4.2,8.4,4.5
		C28.4,51.8,29.1,51.8,29.7,51.4z"/>
</g>
<g>
	<path class="st3" d="M155.8,97.6h-1.2c0-8.5,1.4-16,5.3-16c0.3,0,0.5-0.4,0.5-0.9c0-1.2-1-3.1-4-3.1c-2.4,0-8.1,1.4-8.1,7.6
		c0,4.5,0,8.6,0,12.2c-1.4,0.1-1.6,1.1-1.6,2.2c0.5,0,1.1,0,1.7,0c0.1,16.8,0.9,25.3,7.5,25.3c4.9,0,7-2.5,7-8.1
		c0-5.8-2.5-12.6-6.6-16.3c1.4,0.1,2.5,0.2,3.5,0.2c3,0,5.3-0.9,5.3-3.1c0-0.5-0.1-1-0.3-1.5C162.7,97.4,159.4,97.6,155.8,97.6z
		 M160,117.7c0,2-0.3,3.4-0.9,3.4c-1.9,0-3.8-9-4.4-18.3C158.5,106.1,160,113.4,160,117.7z M240.7,99.8c-1,2.5-3.3,6.6-4.8,6.6
		c-3.5,0-0.6-14.5-5-14.5c-4.2,0-5.5,10.3-7.1,10.3s-0.9-9.8-3.8-9.8c-4.1,0-6.1,9.4-7.7,9.4c-0.8,0-1-0.9-1-2.2
		c0-1.6,0.4-3.6,0.4-4.6c0-1-0.4-2.3-1.7-2.3c-3.2,0-5.8,3.7-5.8,5.3c0,0,0,0.1,0,0.1c-0.9,0.6-1.9,1.1-3,1.4
		c-0.1-3.9-2.4-7.3-6.7-7.3c-6,0-9.1,4.2-9.5,8.6c-1.2,2.4-3,5.4-4.3,5.4c-5,0,0-11.4-5.9-11.4c-3.6,0-4-2-4-3.6v-0.9
		c0-0.3-0.2-0.5-0.4-0.5c0,0,0,0-0.1,0c-3.6,0-5.4,3.5-5.4,6.7c0,2.8,1.4,5.4,3.9,5.4c3.1,0,1.3,8.1,8.5,8.1c2.6,0,6.2-1.9,8.2-4.2
		c0.9,2.6,3.4,4.3,6.1,4.3c4.2,0.1,7.9-2.8,9-6.8c1.3-0.2,2.6-0.7,3.8-1.4c0.8,5.3,3,8.2,4.9,8.2c2.7,0,4.3-6.6,5.6-6.6
		c0.9,0,1.1,6.6,4.7,6.6c2.9,0,5.9-6.5,7.2-6.5c1,0,0.2,6.6,6.7,6.6c4.1,0,8.6-3.5,8.6-7.3C242.3,101.7,241.7,100.5,240.7,99.8z
		 M193.9,106.5c-1.3,0-2-2.4-2-5c1.1,0.9,2.5,1.5,3.9,1.7C195.5,105.1,194.9,106.5,193.9,106.5L193.9,106.5z M192.9,97.6
		c-0.1-0.7,0.3-1.3,0.9-1.7c0.1,0,0.2,0,0.3,0c1.2,0,1.8,2.1,1.9,4.5C193.7,100.2,192.9,98.8,192.9,97.6L192.9,97.6z M308.2,99.8
		c-1.5,4.6-5.3,7.5-8.2,7.5c-2.3,0-3.4-1.5-3.9-3.4c5.6-0.2,8.5-3.6,8.5-6.8c0-2.5-2-4.8-6.1-4.8c-5,0-9.2,3.9-9.5,9
		c-1.2,2.4-2.9,5-4.1,5c-1.3,0-1.5-1.8-1.5-4.1c0-1.2,0-2.5,0-3.7c0-3.2-0.4-6.2-2.8-6.2c-2.7,0-6.2,9.5-7.7,9.5
		c-0.5,0-0.5-0.4-0.5-0.8c0-2.9,0.3-5.9,0.8-8.8c5.7-0.9,9.2-5.1,9.2-8.8c0-3-2.3-5.8-8.1-5.8c-7.3,0-8.2,6.7-8.2,14.2V92
		c0,2.6,0.2,5.3,0.6,7.8c-1.1,2.5-3.3,6.5-4.8,6.5c-1.4,0-1.5-2.2-1.5-5.5c0-2.8,0.1-4.6,0.2-6.4h0.2c2.5,0,4.5-0.4,4.5-3.2
		c0-0.9-0.2-1.7-0.6-2.5c-1.1,0.8-2.4,1.3-3.7,1.5c0.4-3.3,1-5.7,1.5-5.7c0.3,0,0.4-0.1,0.4-0.2c-0.1-1.2-1.2-2.1-2.4-2c0,0,0,0,0,0
		c-3.2,0-7.3,1.9-7.3,5.4c0,1,0,2.1,0,3.2c-1.1,0.2-1.9,1.3-1.8,2.4c0,0.2,0.5,0.5,0.7,0.5c0.3,0,0.7,0,1.1,0
		c0.5,7.7,2.1,16.3,6.5,16.3c3.4-0.1,6.5-2.1,8-5c0.9,3,2,5,3.1,5c1.6,0,2.8-3.2,3.9-5c0.5-0.9,0.9-1.6,1.4-1.6
		c1.2,0,0.2,6.6,6.3,6.6c2.5,0,5.6-2,7.4-4.2c1.7,2.8,5.2,4.1,8.9,4.1c5.4,0,10.9-2.7,10.9-7.1C309.7,101.7,309.2,100.5,308.2,99.8z
		 M274.9,85.8c0.4-1,1.8-4.3,3-4.3c0.7,0,1.1,0.8,1.1,1.8c-0.2,3-2.3,5.5-5.2,6.2C274,88.2,274.4,87,274.9,85.8z M298.5,96.1
		c0.9,0,1.3,0.7,1.3,1.6c0,1.4-1.2,3.3-4,3.9C295.8,98.8,297,96.1,298.5,96.1z M418.4,99.7c-1,2.5-3.3,6.6-4.8,6.6
		c-1.4,0-1.5-2.2-1.5-5.5c0-2.8,0.1-4.6,0.2-6.4h0.2c2.5,0,4.5-0.4,4.5-3.2c0-0.9-0.2-1.7-0.6-2.5c-1.1,0.8-2.4,1.3-3.7,1.5
		c0.4-3.3,1-5.7,1.5-5.7c0.3,0,0.4-0.1,0.4-0.2c-0.1-1.2-1.2-2.1-2.4-2c0,0,0,0,0,0c-3.2,0-7.3,1.9-7.3,5.4c0,1,0,2.1,0,3.2
		c-1.1,0.2-1.9,1.3-1.8,2.4c0,0.2,0.5,0.5,0.7,0.5c0.3,0,0.7,0,1.1,0c0.1,2.1,0.3,4.2,0.7,6.2c-1.1,2.5-3.2,6.4-4.7,6.4
		c-5,0,0-11.4-5.9-11.4c-3.6,0-4-2-4-3.6v-0.9c0-0.3-0.2-0.5-0.4-0.5c0,0,0,0-0.1,0c-3.6,0-5.4,3.5-5.4,6.7c0,1.1,0.2,2.3,0.7,3.3
		c-1.1,2.5-3.2,6.4-4.7,6.4c-1.3,0-1.4-2.9-1.4-5.9c0-1.4,0-2.9,0-4.1c0-2.3-3.3-4.1-6.6-4.1c-5.3-0.3-10,3.5-10.9,8.8
		c-1.8,3.8-5,6.1-7.7,6.1c-2.3,0-3.4-1.5-3.9-3.4c5.6-0.2,8.5-3.6,8.5-6.8c0-2.5-2-4.8-6.1-4.8c-5,0-9.2,3.9-9.5,9
		c-1.2,2.4-2.9,5-4.1,5c-1.3,0-1.5-1.8-1.5-4.1c0-1.2,0-2.5,0-3.7c0-3.2-0.4-6.2-2.8-6.2c-2.7,0-6.2,9.5-7.7,9.5
		c-0.5,0-0.5-0.4-0.5-0.8c0-2.9,0.3-5.9,0.8-8.8c5.7-0.9,9.2-5.1,9.2-8.8c0-3-2.3-5.8-8.1-5.8c-7.3,0-8.2,6.7-8.2,14.2V92
		c0,8.6,2.5,18.1,4.9,18.1c1.6,0,2.8-3.2,3.9-5c0.5-0.9,0.9-1.6,1.4-1.6c1.2,0,0.2,6.6,6.3,6.6c2.5,0,5.6-2,7.4-4.2
		c1.7,2.8,5.2,4.1,8.9,4.1c3.5,0,7.2-1.2,9.2-3.3c0.6,2,2.4,3.3,4.4,3.4c2.9,0.2,5.7-1.3,7.1-3.8c1.1,3.2,3.1,3.8,4.9,3.8
		c4,0,8.6-3.5,8.6-7.2c0-0.4-0.1-0.9-0.2-1.3c0.5,0.3,1.1,0.5,1.7,0.5c3.1,0,1.3,8.1,8.5,8.1c3.1,0,7.4-2.6,9-5.3
		c1,3.2,2.5,5.3,4.7,5.3c4,0,8.6-3.5,8.6-7.2C420,101.6,419.4,100.4,418.4,99.7z M329.6,85.8c0.4-1,1.8-4.3,3-4.3
		c0.7,0,1.1,0.8,1.1,1.8c-0.2,3-2.3,5.5-5.2,6.2C328.7,88.2,329.1,87,329.6,85.8z M353.2,96.1c0.9,0,1.3,0.7,1.3,1.6
		c0,1.4-1.2,3.3-4,3.9C350.5,98.8,351.7,96.1,353.2,96.1L353.2,96.1z M370.3,106.6c-0.9,0-1.3-1.4-1.3-3.2c0-3.2,1.2-7.5,3.3-7.5
		c0.8,0,0.9,1.4,0.9,2.2C373.2,100.1,372.8,106.6,370.3,106.6L370.3,106.6z"/>
	<path class="st4" d="M122,104l0.5,5.2c1.7,0.9,3.6,1.5,5.5,1.5c5.4,0,7.7-3.2,7.7-6.1c0-7.1-10.4-5.4-10.4-10.7c0-1.9,1.7-3,3.5-3
		c2.9,0,4.5,1.6,4.9,4.5h1l-0.3-4.6c-1.6-0.8-3.3-1.3-5.1-1.3c-5,0-7,3.2-7,5.8c0,7.2,9.8,5.5,9.8,10.8c0,1.6-1,3.2-3.6,3.2
		c-3.3,0-5.1-2.5-5.7-5.5L122,104z M114.3,92.6h6.7v-2.4h-6.7v-4.6h-0.5c-1.5,2.5-3.6,4.7-6,6.3v0.7h3v14c0,2.7,1.4,4.2,4.3,4.2
		c2.4,0,4.4-1.4,6-3.1l-0.7-0.7c-0.8,0.8-2,1.3-3.2,1.3c-1.2,0-2.8-0.8-2.8-3.8L114.3,92.6z M91.7,92.6h7.7c1.2,0,1.5,0,1.5,0.9
		v13.9c0,1.5-0.9,1.5-2.2,1.5H98v1.2c1.7,0,3.3-0.1,4.9-0.1s3.2,0.1,4.7,0.1v-1.2h-0.8c-1.3,0-2.3,0-2.3-1.5V90.1
		c0-0.5-0.1-0.9-0.6-0.9c-1,0.7-2.1,1-3.3,0.9h-9c0.1-7.8,0.9-12.6,6.4-12.6c4.3,0,1.7,3.8,4.9,3.8c1,0,1.9-0.5,1.9-2.1
		c0-2.3-2.1-3.5-4.9-3.5c-6.8,0-11.9,5.2-11.9,13.2c0,1.6-2.4,2.5-3.2,2.9v0.8h3.2v14.9c0,0.7-0.2,1.4-1.9,1.4h-1.5v1.2
		c1.6,0,3.5-0.1,5.4-0.1c1.9,0,3.8,0,4.9,0.1v-1.2h-1.2c-1,0-2.1,0-2.1-1.1V92.6z M70.8,96.2c0.5-3.2,2.4-5.3,5.2-5.3
		c2.1-0.1,3.9,1.6,3.9,3.7c0,0.1,0,0.3,0,0.4c0,0.5-0.1,1.1-1.3,1.1L70.8,96.2z M83.3,97.6l0.4-0.3c0-0.3,0.1-0.5,0-0.8
		c0-4.8-4-7.1-7.6-7.1c-3.2,0-9.1,2.6-9.1,11.4c0,2.9,1.4,9.8,8.6,9.8c3.7,0,6.3-2.3,8.3-5.1l-0.6-0.6c-1.7,1.7-3.6,3-6.1,3
		c-3.6,0-6.3-3.5-6.6-7.8c-0.1-0.9-0.1-1.7,0-2.6L83.3,97.6z M46.5,107.4c0,1.5-0.9,1.5-2.2,1.5h-0.8v1.2c1.6,0,3.2-0.1,4.9-0.1
		s3.2,0.1,4.8,0.1v-1.2h-0.8c-1.3,0-2.3,0-2.3-1.5V94.1c1.5-1,3.8-2.2,5.2-2.2c2.6,0,4.1,1.3,4.1,3.8v11.7c0,1.5-0.9,1.5-2.2,1.5
		h-0.8v1.2c1.6,0,3.2-0.1,4.9-0.1s3.2,0.1,4.8,0.1v-1.2h-0.8c-1.3,0-2.3,0-2.3-1.5V95.8c0-3.5-1.4-6.3-5.2-6.3c-3,0-5.2,1.5-7.8,3.4
		v-2.9c0-0.4-0.1-0.5-0.3-0.5c-1.9,0.8-3.9,1.5-5.9,2.2v0.9c2.1,0.9,2.6,1.3,2.6,3L46.5,107.4z M29.4,96.2c0.5-3.2,2.4-5.3,5.2-5.3
		c2.1-0.1,3.9,1.6,3.9,3.7c0,0.1,0,0.3,0,0.4c0,0.5-0.1,1.1-1.3,1.1L29.4,96.2z M41.9,97.6l0.4-0.3c0-0.3,0.1-0.5,0-0.8
		c0-4.8-4-7.1-7.6-7.1c-3.2,0-9.1,2.6-9.1,11.4c0,2.9,1.4,9.8,8.6,9.8c3.7,0,6.3-2.3,8.3-5.1l-0.6-0.6c-1.7,1.7-3.6,3-6.1,3
		c-3.6,0-6.3-3.5-6.6-7.8c-0.1-0.9-0.1-1.7,0-2.6L41.9,97.6z M0,110.1c1.9,0,3.9-0.1,5.9-0.1c2.1,0,4.2,0.1,6.3,0.1
		c8,0,12.1-3.6,12.1-8.5c0-6.3-6.8-8.6-10.1-8.4v-0.1c3.5-0.8,7.2-3,7.2-7.2c0-6.3-7.2-7.3-10.5-7.3c-1.6,0-3.3,0.1-5.9,0.1H3.7
		c-1.2,0-2.5-0.1-3.7-0.1v1.2c2.4,0,4.1,0.1,4.1,3.2v22.8c0,2.6-1.8,3.2-4.1,3V110.1z M8.5,80.2c0.7,0,1.3-0.1,1.9-0.1
		c3.6,0,6.7,0.8,6.7,5.9c0,5.7-3.2,6.8-6.8,6.8H8.5V80.2z M8.5,94.3h2.7c4.5,0,8.5,1.4,8.5,7.9c0,2.8-1.8,6.4-7.1,6.4
		c-4.1,0-4.1-1.7-4.1-3.7L8.5,94.3z"/>
</g>
</svg>
