<svg xmlns="http://www.w3.org/2000/svg" viewBox="0 0 420 120">
  <path d="M205.5,46.2a9.49,9.49,0,0,0,6.1-2.7v1.4a2.20185,2.20185,0,0,0,.1.8.6338.6338,0,0,0,.6.5h0a19.75281,19.75281,0,0,0,2.6-.8,22.22973,22.22973,0,0,1,2.8-.8h.2V43.3H217a2.62177,2.62177,0,0,1-1.5-.2c-.2-.1-.3-.4-.3-1.3v-27c0-.3-.1-.8-.6-.8a3.12816,3.12816,0,0,0-1,.5,20.8772,20.8772,0,0,1-4.1,1.7l-.2.1v1l.2.1c1.6.5,1.9.3,2,2.9v6.8a10.275,10.275,0,0,0-13.2,6.2,9.77868,9.77868,0,0,0-.6,3.8C197.7,41.8,200.5,46.2,205.5,46.2Zm2-17.8c1.7,0,4.1.7,4.1,3.5v9.3c0,.6-.6,1.2-1.4,1.5a4.64526,4.64526,0,0,1-2.3.6c-3.5,0-6.2-3.2-6.2-7.6,0-5.3,3-7.3,5.8-7.3ZM193.1,43.9c-.3-.1-.4-.3-.4-1V32.4a6.99247,6.99247,0,0,0-1.1-4.2,4.38473,4.38473,0,0,0-3.8-1.8c-2.7,0-4.6,1.3-6.8,2.8V27a.90143.90143,0,0,0-.1-.5.51951.51951,0,0,0-.4-.2h-.1a47.6349,47.6349,0,0,1-5.3,1.9l-.2.1v1.1l.1.1c1.9.8,2.2,1,2.2,2.5V43a1.17526,1.17526,0,0,1-.4,1,2.87886,2.87886,0,0,1-1.3.1h-.9v1.5h.2c1.5,0,2.9-.1,4.4-.1s2.9.1,4.3.1h.2V44.1h-1a5.283,5.283,0,0,1-1.3-.1c-.3-.1-.4-.3-.4-1V31.1a9.32654,9.32654,0,0,1,4.5-1.8c2.2,0,3.5,1,3.5,3.2V43a1.17529,1.17529,0,0,1-.4,1,2.87891,2.87891,0,0,1-1.3.1h-1v1.5h.2c1.5,0,2.9-.1,4.4-.1s2.9.1,4.3.1h.2V44.1h-1A2.95338,2.95338,0,0,1,193.1,43.9ZM156.4,33.8c1,0,2.5-.6,2.5-1.9a2.56183,2.56183,0,0,1,2.5-2.6h.3c2.5,0,3.7,1.1,3.7,3.3V35c-4.3,1.5-6.9,2.4-8.4,3.3a4.13341,4.13341,0,0,0-2.2,3.7,4.35494,4.35494,0,0,0,4.5,4.2h.1c2.4,0,4.3-1.2,6.1-2.7a2.75418,2.75418,0,0,0,2.7,2.7c1.7,0,3-1.2,4.2-2.3l.1-.1-.1-.2-.5-1-.2.3a1.61246,1.61246,0,0,1-1.3.6c-.7,0-1.2-.4-1.2-2.1V30.2c-.1-2.5-3.3-3.6-5.2-3.6-1.6,0-2.4.6-3.8,1.3-2.8,1.5-4.8,2.5-4.8,4.8a1.0278,1.0278,0,0,0,1,1.1Zm9,7.8c-1.3,1.2-2.5,2.2-4.2,2.2a2.60572,2.60572,0,0,1-2.6-2.7c-.1-2.6,4.6-3.7,6.9-4.5v5Zm-16,2.3c-.3-.1-.4-.3-.4-1v-28a.7493.7493,0,0,0-.1-.5.54993.54993,0,0,0-.5-.3,3.12826,3.12826,0,0,0-1,.5,20.87712,20.87712,0,0,1-4.1,1.7l-.2.1v1l.2.1c1.6.5,1.9.3,2,2.9V43a1.17526,1.17526,0,0,1-.4,1,2.87886,2.87886,0,0,1-1.3.1h-1v1.5h.2c1.5,0,3-.1,4.4-.1,1.5,0,2.9.1,4.3.1h.2V44.1h-.9A3.17821,3.17821,0,0,1,149.4,43.9Zm-11.8-1.6-6.7-7.4,4.3-3.9a6.442,6.442,0,0,1,4.9-2.2h.2V27.3h-.2c-1.3,0-2.5.1-3.8.1-1.4,0-2.9,0-4.3-.1h-.2v1.5h.2a4.86868,4.86868,0,0,1,1.2.1c.4.1.6.2.6.5a5.5466,5.5466,0,0,1-1.5,1.9L128,35.1l-.9.2V14.9c0-.3-.1-.8-.6-.8a3.12806,3.12806,0,0,0-1,.5,20.87737,20.87737,0,0,1-4.1,1.7l-.2.1v1l.2.1c1.6.5,1.9.3,2,2.9V43a1.17526,1.17526,0,0,1-.4,1,2.87888,2.87888,0,0,1-1.3.1h-1v1.5h.2c1.5,0,2.9-.1,4.4-.1s2.9.1,4.3.1h.2V44.1h-1a5.283,5.283,0,0,1-1.3-.1c-.3-.1-.4-.3-.4-1V36.7h.5l6.4,7.2c.4.5.9,1.1,1.3,1.6l.1.1h.1c.9,0,1.8-.1,2.7-.1a31.12282,31.12282,0,0,1,3.2.1h.2V44.1h-.2C139.3,44.1,139.2,44,137.6,42.3ZM116.8,26.6c-2.4,0-4,2.2-5,3.7v-3a1.26834,1.26834,0,0,0-.1-.6.76383.76383,0,0,0-.5-.2,7.74079,7.74079,0,0,0-1.6.7c-.8.4-2,1-3.4,1.6l-.2.2v.9l.1.1c.7.4,2,.6,2,1.6V43a1.17526,1.17526,0,0,1-.4,1,2.87891,2.87891,0,0,1-1.3.1H105v1.5h.2c1.5,0,3.2-.1,4.8-.1,1.7,0,3.4,0,5.7.1h.2V44.1h-2.5a5.702,5.702,0,0,1-1.3-.1c-.3-.1-.4-.3-.4-1V33.5a3.1943,3.1943,0,0,1,1.1-2.4,2.92833,2.92833,0,0,1,1.6-.7,2.00984,2.00984,0,0,1,1.3.4,2.38933,2.38933,0,0,0,1.4.5,2.15932,2.15932,0,0,0,2.1-2.3h0a2.25679,2.25679,0,0,0-2.4-2.4ZM86.6,33.8c1,0,2.5-.6,2.5-1.9a2.56183,2.56183,0,0,1,2.5-2.6h.3c2.5,0,3.7,1.1,3.7,3.3V35c-4.3,1.5-6.9,2.4-8.4,3.3A4.13339,4.13339,0,0,0,85,42a4.35493,4.35493,0,0,0,4.5,4.2h.2c2.4,0,4.3-1.2,6.1-2.7a2.75417,2.75417,0,0,0,2.7,2.7c1.7,0,3-1.2,4.2-2.3l.1-.1-.1-.2-.5-1-.2.4a1.61246,1.61246,0,0,1-1.3.6c-.7,0-1.2-.4-1.2-2.1V30.3c-.1-2.5-3.3-3.6-5.2-3.6-1.6,0-2.4.6-3.8,1.3-2.8,1.5-4.8,2.5-4.8,4.8a.91924.91924,0,0,0,.9,1Zm9.1,7.8c-1.3,1.2-2.5,2.2-4.2,2.2a2.60572,2.60572,0,0,1-2.6-2.7c-.1-2.6,4.6-3.7,6.9-4.5v5ZM75.2,16.8c-1.7,0-3.1.1-4.5.1-1.8,0-3.7,0-5.5-.1h-.3v1.5h.2c1.5,0,2.3.2,2.7.7a5.165,5.165,0,0,1,.6,3V41.3c0,1.4-.4,2-.9,2.3A7.26692,7.26692,0,0,1,65,44h-.2v1.5H65c2,0,3.9-.1,5.9-.1,1.8,0,3.5.1,5.5.1h.2V44h-.2a5.69471,5.69471,0,0,1-2.6-.4c-.6-.3-.9-.9-.9-2.3V18.7a7.56868,7.56868,0,0,1,1.5-.1c2.6,0,6.4,1.5,6.4,7,0,2.9-1.5,6.1-4.8,6.1a7.56868,7.56868,0,0,1-1.5-.1h-.3v1.9h2.3c4.4,0,9-3.4,9-8.4C85.7,18.6,79.5,16.8,75.2,16.8Z" fill="#939ba0"/>
  <rect width="57.1" height="60" fill="#542987"/>
  <path d="M29.7,15.9l9-5.8c.2-.1.2-.3.1-.5h0c-.1-.2-.3-.2-.5-.1s-8.7,5.4-8.7,5.4a1.09986,1.09986,0,0,0-.6-1L20.6,9.4a1.0794,1.0794,0,0,0-1.5.5h0a1.0794,1.0794,0,0,0,.5,1.5h0s7.9,4.2,8.4,4.5A1.7072,1.7072,0,0,0,29.7,15.9Zm0,4.4,9-5.8c.2-.1.2-.3.1-.5h0c-.1-.2-.3-.2-.5-.1s-8.7,5.4-8.7,5.4a1.09986,1.09986,0,0,0-.6-1l-8.4-4.5a1.0794,1.0794,0,0,0-1.5.5h0a1.0794,1.0794,0,0,0,.5,1.5S27.5,20,28,20.3A1.34688,1.34688,0,0,0,29.7,20.3Zm0,4.5,9-5.8c.2-.1.2-.3.1-.5h0c-.1-.2-.3-.2-.5-.1s-8.7,5.4-8.7,5.4a1.09986,1.09986,0,0,0-.6-1l-8.4-4.5a1.0794,1.0794,0,0,0-1.5.5h0a1.0794,1.0794,0,0,0,.5,1.5h0s7.9,4.2,8.4,4.5A1.7072,1.7072,0,0,0,29.7,24.8Zm0,4.4L48.6,17.1c.2-.1.2-.3.1-.5h0c-.1-.2-.3-.2-.5-.1S29.5,28.2,29.5,28.2a1.09986,1.09986,0,0,0-.6-1L10,17.2a1.0794,1.0794,0,0,0-1.5.5h0A1.0794,1.0794,0,0,0,9,19.2H9s18.3,9.7,18.9,10A1.49813,1.49813,0,0,0,29.7,29.2Zm0,4.4L48.6,21.5c.2-.1.2-.3.1-.5h0c-.1-.2-.3-.2-.5-.1-.2.2-18.7,11.8-18.7,11.8a1.09986,1.09986,0,0,0-.6-1L10,21.7a1.0794,1.0794,0,0,0-1.5.5h0A1.0794,1.0794,0,0,0,9,23.7H9s18.3,9.7,18.9,10A1.688,1.688,0,0,0,29.7,33.6Zm0,4.5L48.5,26c.2-.1.2-.3.1-.5h0c-.1-.2-.3-.2-.5-.1-.1.1-18.6,11.7-18.6,11.7a1.09986,1.09986,0,0,0-.6-1L10,26.1a1.0794,1.0794,0,0,0-1.5.5h0A1.0794,1.0794,0,0,0,9,28.1s18.3,9.7,18.9,10A1.49813,1.49813,0,0,0,29.7,38.1Zm0,4.4,9-5.8c.2-.1.2-.3.1-.5h0c-.1-.2-.3-.2-.5-.1s-8.7,5.4-8.7,5.4a1.09986,1.09986,0,0,0-.6-1L20.6,36a1.0794,1.0794,0,0,0-1.5.5h0a1.0794,1.0794,0,0,0,.5,1.5s7.9,4.2,8.4,4.5A1.34688,1.34688,0,0,0,29.7,42.5Zm0,4.5,9-5.8c.2-.1.2-.3.1-.5h0c-.1-.2-.3-.2-.5-.1S29.6,46,29.6,46a1.09986,1.09986,0,0,0-.6-1l-8.4-4.5a1.0794,1.0794,0,0,0-1.5.5h0a1.0794,1.0794,0,0,0,.5,1.5S27.5,46.7,28,47A1.34688,1.34688,0,0,0,29.7,47Zm0,4.4,9-5.8c.2-.1.2-.3.1-.5h0c-.1-.2-.3-.2-.5-.1s-8.7,5.4-8.7,5.4a1.09985,1.09985,0,0,0-.6-1L20.5,45a1.0794,1.0794,0,0,0-1.5.5h0a1.0794,1.0794,0,0,0,.5,1.5s7.9,4.2,8.4,4.5A1.688,1.688,0,0,0,29.7,51.4Z" fill="#fff"/>
  <path d="M411.836,89.987h-4.30387l-.53244,1.81916h4.34821L407.399,105.11708a11.51589,11.51589,0,0,0-.57678,2.83966,2.08634,2.08634,0,0,0,1.95222,2.30723c3.239,0,6.87732-4.17075,8.874-6.38924l-.62121-.75428c-1.15361,1.15361-3.77139,3.86016-5.50182,3.86016-.66555,0-.88739-.4437-.88739-.97613a4.72858,4.72858,0,0,1,.26622-1.37546l3.86016-12.82283h4.7032L420,89.987h-4.74754l1.81916-5.59057h-3.54955Zm-22.62854,6.03428c.70994-.8874,2.5291-2.97277,3.727-2.97277.57683,0,.84305.66554.84305,1.15361a11.43888,11.43888,0,0,1-.53244,2.61781l-3.50521,12.246a1.2948,1.2948,0,0,0-.08872.39932c0,.39933.843.79866,1.41982.79866.79862,0,1.50856-.04437,1.59728-.355l.79867-2.83966c1.46421-4.5257,4.61443-13.13342,7.676-13.13342.5324,0,1.10922.17748,1.64167.17748,1.37544,0,1.8635-2.26285,1.8635-3.28335,0-.97614-.44367-1.50857-1.37545-1.50857-2.79527,0-6.966,7.80906-8.164,10.07191h-.08872l1.686-6.07864a10.59432,10.59432,0,0,0,.44371-2.30722c0-1.198-.70993-1.68605-1.81916-1.68605-2.1741,0-5.59059,4.30385-6.69981,5.94553Zm-6.2561-5.23562a3.66275,3.66275,0,0,0-2.7953-1.4642c-5.72368,0-14.37577,10.205-14.37577,17.25979,0,1.59731.66556,3.68269,3.37211,3.68269,3.54957,0,7.676-5.10252,9.9388-8.519l.04436.13311-1.24235,3.90453a13.08857,13.08857,0,0,0-.75428,3.239,1.35636,1.35636,0,0,0,1.50858,1.24235c2.79527,0,5.36871-3.9489,7.09912-5.76806l-.70991-.57681c-.843.75429-1.99664,2.61781-3.28336,2.61781-.3993,0-.53241-.31058-.53241-.62117a3.06346,3.06346,0,0,1,.17747-1.10924l4.3926-15.75123a1.99817,1.99817,0,0,0,.08872-.355c0-.13311-.13311-.22184-.39933-.22184h-.93175c-.53244,0-.79866.5768-.97613.88739ZM369.06366,103.9191c0-4.39259,5.05815-12.51224,9.85006-12.51224a2.39177,2.39177,0,0,1,2.21849,2.26286c0,3.94889-5.50185,13.31089-9.8057,13.31089-1.73041,0-2.26285-1.55294-2.26285-3.06151M351.2278,99.88147c.70991-2.9284,4.21512-9.14015,7.63159-9.14015a1.726,1.726,0,0,1,1.81916,1.90789c0,4.83629-5.36874,6.966-9.45075,7.23226m10.78183,3.86016c-2.52908,2.44033-5.14688,4.12637-7.72031,4.12637-2.08539,0-3.63833-1.198-3.63833-3.41646a14.90114,14.90114,0,0,1,.355-3.41646c4.74755-.4437,13.22216-2.52907,13.22216-8.56335,0-2.44033-2.3516-3.15024-4.34823-3.15024-6.4336,0-12.77845,7.85343-12.77845,14.95257,0,2.97277,1.37545,5.98991,5.45746,5.98991,3.90452,0,7.14351-2.52907,10.07192-5.76806Zm-28.086-27.86415L333.43559,75.7a27.04235,27.04235,0,0,1-3.15026.75429c-1.10923.17747-2.21847.31058-2.92839.39932l-.13311.57681,2.17411,1.24235-7.0104,28.70717a7.52426,7.52426,0,0,0-.26622,1.37546c0,.53243.843.75428,1.41983.75428,1.50857,0,1.81916-.31059,1.90788-.70991a26.92779,26.92779,0,0,1,2.66219-7.58721c1.28672-2.44034,6.52234-9.22889,9.58386-9.22889,1.33108,0,1.77477,1.10924,1.77477,2.61781,0,3.0615-1.90788,8.20838-3.28335,10.9593H333.125l-.93175,2.17412a3.25459,3.25459,0,0,0-.22185.88739c0,.53243.22185.97613,1.06488.97613,4.57007,0,9.98317-11.93544,9.98317-16.41677,0-2.17411-.843-3.86016-3.19461-3.86016-4.12637,0-10.16066,6.92166-12.06855,9.9388h-.08875Zm-39.04531,24.004c.70991-2.9284,4.21512-9.14015,7.63159-9.14015a1.726,1.726,0,0,1,1.81916,1.90789c0,4.83629-5.36874,6.966-9.45075,7.23226m10.78183,3.86016c-2.52908,2.44033-5.14688,4.12637-7.72032,4.12637-2.08538,0-3.63832-1.198-3.63832-3.41646a14.90114,14.90114,0,0,1,.355-3.41646c4.74755-.4437,13.22216-2.52907,13.22216-8.56335,0-2.44033-2.3516-3.15024-4.34824-3.15024-6.43359,0-12.77846,7.85343-12.77846,14.95257,0,2.97277,1.37547,5.98991,5.45748,5.98991,3.90452,0,7.14351-2.52907,10.07192-5.76806Zm-28.086-27.86415L277.08611,75.7a27.04123,27.04123,0,0,1-3.15025.75429c-1.10924.17747-2.21847.31058-2.92838.39932l-.13311.57681,2.17411,1.24235-7.0104,28.70717a7.52429,7.52429,0,0,0-.26623,1.37546c0,.53243.843.75428,1.41983.75428,1.50856,0,1.81917-.31059,1.90789-.70991a26.92717,26.92717,0,0,1,2.66219-7.58721c1.28672-2.44034,6.52234-9.22889,9.58383-9.22889,1.33111,0,1.7748,1.10924,1.7748,2.61781,0,3.0615-1.90791,8.20838-3.28335,10.9593h-3.06152l-.93175,2.17412a3.25425,3.25425,0,0,0-.22186.88739c0,.53243.22186.97613,1.06489.97613,4.57007,0,9.98317-11.93544,9.98317-16.41677,0-2.17411-.843-3.86016-3.19463-3.86016-4.12638,0-10.16064,6.92166-12.06855,9.9388h-.08873ZM256.89867,89.987h-4.30385l-.53245,1.81916h4.34824l-3.9489,13.31089a11.51452,11.51452,0,0,0-.57681,2.83966,2.08637,2.08637,0,0,0,1.95227,2.30723c3.239,0,6.87729-4.17075,8.87392-6.38924l-.62116-.75428c-1.15361,1.15361-3.77143,3.86016-5.50185,3.86016-.66555,0-.88738-.4437-.88738-.97613a4.72858,4.72858,0,0,1,.26622-1.37546l3.86015-12.82283h4.70319l.53244-1.81916h-4.74757l1.81916-5.59057h-3.54957ZM235.423,103.51978c-.66553.70991-3.06149,2.79529-3.86015,2.79529-.31059,0-.70992-.17748-.70992-.53244a10.50508,10.50508,0,0,1,.62117-2.08537l3.54957-10.3825a7.02292,7.02292,0,0,0,.44372-2.17412,1.59993,1.59993,0,0,0-1.7748-1.81915c-4.21512,0-10.87056,7.4541-13.26652,10.47124h-.08875l2.12975-6.61108a8.2271,8.2271,0,0,0,.48808-2.396c0-.843-.62119-1.4642-1.99664-1.4642-3.9489,0-10.51561,7.321-12.64535,10.3825h-.08875l2.30722-6.69982a7.16654,7.16654,0,0,0,.48807-2.12975,1.408,1.408,0,0,0-1.50857-1.55293c-2.92841,0-6.03427,3.54957-7.72032,5.63494l.66553.79866,1.198-1.33109a4.1218,4.1218,0,0,1,2.57343-1.55294c.53245,0,.70992.39933.70992.88739a6.45577,6.45577,0,0,1-.17747,1.10925L202.057,109.02162a2.17469,2.17469,0,0,0,1.41983.5768c.53242,0,1.50856-.13311,1.64167-.48806l.88739-2.52908a26.11779,26.11779,0,0,1,5.5462-9.05141c1.41983-1.55293,4.082-4.65881,6.478-4.65881.62117,0,.843.48807.843,1.10924a12.87688,12.87688,0,0,1-.75428,3.28336L214.12557,109.066c.13309.31058,1.0205.62117,1.55292.62117.39933,0,1.37547-.13311,1.50858-.53244l.843-2.041a27.79662,27.79662,0,0,1,4.57008-8.07528c1.41983-1.73041,5.45746-6.21175,7.7647-6.21175a1.01309,1.01309,0,0,1,1.02049,1.06487,7.00038,7.00038,0,0,1-.48808,1.81916l-3.59393,10.29376a7.47921,7.47921,0,0,0-.53244,2.08537c0,1.15361.79866,1.50857,1.64168,1.50857,2.44033,0,4.52571-1.99663,6.25613-3.90453l1.37546-1.50857Zm-57.19248-2.17412c0,5.36873,3.41647,8.91831,8.74082,8.91831,6.34486,0,11.66923-5.67932,11.66923-11.93544,0-5.10251-3.3721-9.007-8.519-9.007a12.21344,12.21344,0,0,0-11.89107,12.02417m3.54957,1.50857c0-4.88066,2.3516-12.37913,8.29713-12.37913,3.81578,0,5.01378,3.10588,5.01378,6.25612,0,4.57007-2.44035,12.37914-8.164,12.37914-3.90453,0-5.14689-2.9284-5.14689-6.25613m-21.1192-6.83292c.70991-.8874,2.52906-2.97277,3.72705-2.97277.5768,0,.843.66554.843,1.15361a11.43832,11.43832,0,0,1-.53243,2.61781l-3.50521,12.246a1.29571,1.29571,0,0,0-.08874.39932c0,.39933.843.79866,1.41983.79866.79865,0,1.50857-.04437,1.59732-.355l.79865-2.83966c1.46419-4.5257,4.61444-13.13342,7.676-13.13342.53243,0,1.10923.17748,1.64168.17748,1.37545,0,1.86352-2.26285,1.86352-3.28335,0-.97614-.44369-1.50857-1.37546-1.50857-2.79529,0-6.966,7.80906-8.164,10.07191h-.08873l1.686-6.07864a10.59417,10.59417,0,0,0,.4437-2.30722c0-1.198-.70991-1.68605-1.81916-1.68605-2.17412,0-5.59058,4.30385-6.69981,5.94553ZM154.80409,89.987l1.55293-6.07864c.62118-2.52907,1.41983-5.54621,4.12638-5.54621,1.0205,0,1.95227.88739,2.79529.88739.79865,0,1.24235-1.50857,1.24235-2.12974,0-1.06487-.93176-1.41983-1.81915-1.41983a7.92441,7.92441,0,0,0-4.74756,2.12974c-4.082,3.54958-5.23562,7.23226-6.65545,12.15729h-3.90453l-.48807,1.81916h3.99328l-6.83293,27.64229.1331.26622,2.70655-.79865L154.316,91.80619h4.83629l.53243-1.81916Z" fill="#552988"/>
  <path d="M120.23951,103.65289l.48806,5.10251a11.68286,11.68286,0,0,0,5.4131,1.50856c5.28,0,7.63159-3.10587,7.63159-6.03427,0-6.966-10.29376-5.36873-10.29376-10.56,0-1.90789,1.68605-2.9284,3.46083-2.9284,2.83966,0,4.39259,1.59731,4.8363,4.3926h1.02049l-.31058-4.5257a11.674,11.674,0,0,0-5.05814-1.28673c-4.88067,0-6.8773,3.19462-6.8773,5.67932,0,7.14352,9.67259,5.45747,9.67259,10.69309,0,1.55294-.97614,3.15024-3.594,3.15024-3.239,0-5.01377-2.4847-5.59057-5.41309ZM112.69742,92.383h6.61108V89.987h-6.61108V85.46132H112.165a19.11422,19.11422,0,0,1-5.94553,6.21176V92.383h2.9284v13.7546c0,2.61781,1.37545,4.12637,4.21511,4.12637,2.396,0,4.34823-1.41983,5.90117-3.01713l-.66554-.66555a4.40413,4.40413,0,0,1-3.10588,1.28672c-1.198,0-2.79529-.79865-2.79529-3.727Zm-22.27356,0h7.63157c1.15362,0,1.50857.04437,1.50857.8874v13.71022c0,1.4642-.88739,1.4642-2.12973,1.4642h-.843v1.15361c1.64168-.04437,3.239-.08874,4.83629-.08874s3.15025.08874,4.65881.08874v-1.15361h-.75429c-1.24234,0-2.21848,0-2.21848-1.4642V89.94266c0-.48806-.08873-.88739-.62116-.88739a4.96387,4.96387,0,0,1-3.239.93176H90.42386c.13311-7.72032.88739-12.46787,6.34485-12.46787,4.21512,0,1.686,3.72705,4.79193,3.72705,1.0205,0,1.90789-.48807,1.90789-2.08538,0-2.30722-2.08537-3.46083-4.83629-3.46083-6.69981,0-11.75795,5.14688-11.75795,13.04468,0,1.55294-2.396,2.4847-3.10588,2.884V92.383h3.10588v14.642c0,.66554-.22186,1.41983-1.86353,1.41983h-1.4642v1.15361c1.59731-.04437,3.46083-.08874,5.28-.08874,1.90789,0,3.77142.04437,4.8363.08874v-1.15361H92.50923c-.97613,0-2.08537,0-2.08537-1.06487ZM69.74835,95.93256c.53243-3.19461,2.396-5.19125,5.10251-5.19125a3.76109,3.76109,0,0,1,3.86016,4.082c0,.53244-.13311,1.10924-1.24235,1.10924Zm12.33476,1.41983.39933-.26621a4.82244,4.82244,0,0,0,.04437-.79866c-.04437-4.70318-3.90453-6.966-7.49847-6.966-3.10588,0-8.96268,2.57345-8.96268,11.2699,0,2.83966,1.41983,9.67258,8.47461,9.67258,3.63831,0,6.16738-2.30722,8.20839-5.01377l-.62118-.62117c-1.64167,1.64167-3.54957,2.97276-5.9899,2.97276-3.54957,0-6.25612-3.46083-6.52234-7.67595a11.17936,11.17936,0,0,1,0-2.57344Zm-36.29438,9.62822c0,1.4642-.88739,1.4642-2.12974,1.4642h-.79865v1.15361c1.5973-.04437,3.19461-.08874,4.79192-.08874s3.15024.08874,4.70318.08874v-1.15361h-.79865c-1.24235,0-2.21848,0-2.21848-1.4642V93.84719c1.46419-.97613,3.727-2.12974,5.14688-2.12974,2.52907,0,4.082,1.24235,4.082,3.77142v11.49174c0,1.4642-.88739,1.4642-2.12974,1.4642H55.6388v1.15361c1.5973-.04437,3.19461-.08874,4.79192-.08874s3.15024.08874,4.70318.08874v-1.15361h-.79865c-1.24235,0-2.21848,0-2.21848-1.4642V95.53324c0-3.46084-1.33109-6.21176-5.10251-6.21176-2.97277,0-5.14688,1.50857-7.67595,3.32773v-2.884c0-.355-.13311-.4437-.26622-.4437a59.86821,59.86821,0,0,1-5.8568,2.12975v.843c2.08538.843,2.57344,1.28672,2.57344,2.9284ZM28.929,95.93256c.53243-3.19461,2.396-5.19125,5.10251-5.19125a3.76109,3.76109,0,0,1,3.86016,4.082c0,.53244-.13311,1.10924-1.24235,1.10924Zm12.33476,1.41983.39933-.26621a4.82244,4.82244,0,0,0,.04437-.79866c-.04437-4.70318-3.90453-6.966-7.49847-6.966-3.10588,0-8.96267,2.57345-8.96267,11.2699,0,2.83966,1.41983,9.67258,8.4746,9.67258,3.63831,0,6.16738-2.30722,8.20839-5.01377l-.62118-.62117c-1.64168,1.64167-3.54957,2.97276-5.9899,2.97276-3.54957,0-6.25613-3.46083-6.52234-7.67595a11.17936,11.17936,0,0,1,0-2.57344ZM0,109.59842c1.9079-.04437,3.86016-.08874,5.81243-.08874,2.08537,0,4.17074.08874,6.25612.08874,7.85343,0,11.93543-3.59394,11.93543-8.3415,0-6.25612-6.65544-8.4746-9.98317-8.29712v-.08874c3.41647-.79866,7.14352-2.9284,7.14352-7.05478,0-6.25612-7.05478-7.18788-10.33813-7.18788-1.59731,0-3.239.08874-5.76806.08874H3.68268c-1.198,0-2.44033-.08874-3.68268-.08874V79.782c2.35159.04437,4.03764.08874,4.03764,3.19461V105.472c0,2.52907-1.81916,3.10588-4.03764,2.97277ZM8.38587,80.137c.66554-.04437,1.28672-.08874,1.86352-.08874,3.54957,0,6.56671.75428,6.56671,5.85679,0,5.59058-3.15025,6.74419-6.74419,6.74419h-1.686Zm0,13.93207h2.66218c4.39259,0,8.34149,1.41983,8.34149,7.76469,0,2.75092-1.73042,6.34486-7.01041,6.34486-3.99326,0-3.99326-1.64168-3.99326-3.63831Z" fill="#414042"/>
</svg>
