<svg xmlns="http://www.w3.org/2000/svg" viewBox="0 0 180 46">
  <path d="M14.62346,26.90874h-.63138c-.07092-1.28872,0-2.14886-1.87213-2.14886H8.56348V38.10461c0,1.67133.88912,1.69431,2.12889,1.71829v.62138c-1.12289,0-2.12889-.048-3.15786-.048-1.12388,0-2.22279.024-3.39263.048V39.8229c1.23977-.024,2.12888-.047,2.12888-1.71829V24.75988H3.20581c-2.1059,0-2.19981.5974-2.59742,2.14886H0l.25774-3.79523H.72528c.25774.64436.88911.66834,1.47453.66834H12.82225c.84216,0,1.42658-.21479,1.52049-.66834h.49151Zm4.56536,11.38668A3.86671,3.86671,0,0,1,16.61538,39.68,1.70567,1.70567,0,0,1,14.954,37.96175c0-1.79122,3.042-2.33968,4.23479-2.8172Zm3.57944.81219a1.14886,1.14886,0,0,1-.86514.40559c-.51549,0-.84316-.38261-.84316-1.36064V31.54013c0-1.31269-1.80121-2.005-2.85416-2.005a3.98782,3.98782,0,0,0-2.10591.76324c-1.63737.86014-2.69033,1.45655-2.69033,2.72129a.428.428,0,0,0,.42159.47753c.56144,0,1.30969-.33467,1.30969-1.002a1.63653,1.63653,0,0,1,1.77824-1.67133c1.4975,0,2.26974.71628,2.26974,2.053v1.57544c-5.054,1.76624-6.013,2.12489-6.10693,4.034a2.37446,2.37446,0,0,0,2.52749,2.31569,5.1854,5.1854,0,0,0,3.60242-1.76624c.04695.85915.49151,1.76624,1.45155,1.76624a3.57862,3.57862,0,0,0,2.3157-1.28872Zm.68682,1.33607c.86613-.023,1.7083-.047,2.55046-.047s1.66135.047,2.45656.047V39.8233h-.39761c-.65535,0-1.16984,0-1.16984-.78722V22.54048c0-.19081-.04695-.33466-.18681-.33466a2.40423,2.40423,0,0,0-.51449.26274,14.89146,14.89146,0,0,1-2.4106,1.027v.38162c.88911.26274,1.23977.31069,1.23977,1.86215V39.03608c0,.78722-.46754.78722-1.12289.78722h-.44455Zm6.953-7.35259c.28072-1.71829,1.26374-2.79222,2.69032-2.79222a2.00658,2.00658,0,0,1,2.036,2.19581c0,.28672-.06993.59641-.65535.59641Zm6.50453.76424.21079-.14286a2.69864,2.69864,0,0,0,.023-.42957,3.74669,3.74669,0,0,0-3.95407-3.74827c-1.63737,0-4.7263,1.38462-4.7263,6.064,0,1.52748.74926,5.20282,4.46955,5.20282,1.9181,0,3.25177-1.24076,4.3277-2.69631l-.32667-.33467a4.45666,4.45666,0,0,1-3.15886,1.59941c-1.87214,0-3.29872-1.86215-3.43958-4.1299a6.11717,6.11717,0,0,1,0-1.38462Zm1.901,5.18015c0,.78822-.46753.78822-1.12288.78822h-.42158v.62038c.84216-.024,1.68532-.048,2.52648-.048.84317,0,1.66135.048,2.48054.048V39.8237h-.42058c-.65535,0-1.17084,0-1.17084-.78822v-7.066a6.16366,6.16366,0,0,1,2.7143-1.14586,1.88849,1.88849,0,0,1,2.15286,2.029v6.18285c0,.78822-.46754.78822-1.12288.78822h-.42158v.62038c.84216-.024,1.68532-.048,2.52648-.048.84317,0,1.66135.048,2.48054.048V39.8237h-.42059c-.65534,0-1.17083,0-1.17083-.78822V32.87661c0-1.86115-.7013-3.34168-2.69032-3.34168-1.56745,0-2.71431.81119-4.048,1.79022V29.77369c0-.19081-.06993-.23876-.13986-.23876A31.56762,31.56762,0,0,1,37.457,30.68079v.45355c1.09891.45355,1.35665.69231,1.35665,1.57543Zm12.9768-7.85339h3.48553V29.89237H51.7904V27.45779h-.28072a10.19169,10.19169,0,0,1-3.13489,3.34168v.38262h1.54447v7.40064a1.98554,1.98554,0,0,0,2.22279,2.21879A4.42323,4.42323,0,0,0,55.253,39.17914l-.35066-.35865a2.29861,2.29861,0,0,1-1.63737.69231c-.63237,0-1.47453-.42957-1.47453-2.005Zm13.77939-7.4c-.49151,0-1.006.04695-1.49751.04695-.81818,0-1.66135-.024-2.47953-.04695v.62038a2.41506,2.41506,0,0,1,1.61439.38162c.32768.28672.44356.8122.44356,1.64736,0,3.27075-.16384,6.51652-.25674,9.78727-.09391,3.19882-1.12289,3.60442-2.78424,3.60442v.62138c1.029-.024,2.08194-.048,3.11191-.048.959,0,1.94207.048,2.90112.048V39.8231a2.8074,2.8074,0,0,1-1.89512-.4056c-.37463-.33467-.49151-.979-.49151-2.14786,0-.33467.024-1.19382.024-1.50451l.18681-8.6414h.04695c2.22279,4.51151,4.46855,8.97507,6.45758,13.53454H71.419c.18782-.62039.65535-1.79022.9121-2.36265l5.5225-11.69737h.047l.16383,11.38667c0,.93108-.18781,1.38463-.60839,1.62339a4.11643,4.11643,0,0,1-1.8022.21479v.62138c1.14685-.024,2.26973-.048,3.4156-.048,1.28772,0,2.57443.048,3.86116.048V39.8231c-2.33967,0-2.50351-.52448-2.55047-2.3157-.0929-3.60442-.3037-7.61443-.3037-11.38668,0-.78721.13987-1.19281.44457-1.43257a2.83824,2.83824,0,0,1,1.63737-.28572v-.62038c-.67833,0-1.38063.04695-2.059.04695-.63137,0-1.28672-.024-1.91809-.04695-1.94207,4.53549-4.21181,8.92812-6.31771,13.39168ZM89.57272,38.29542A3.86444,3.86444,0,0,1,86.99929,39.68a1.70567,1.70567,0,0,1-1.66135-1.71829c0-1.79122,3.042-2.33968,4.23478-2.8172Zm3.57945.81219a1.14886,1.14886,0,0,1-.86514.40559c-.51449,0-.84316-.38261-.84316-1.36064V31.54013c0-1.31269-1.80122-2.005-2.85416-2.005a3.98782,3.98782,0,0,0-2.10591.76324c-1.63737.86014-2.69032,1.45655-2.69032,2.72129a.428.428,0,0,0,.42157.47753c.56145,0,1.30971-.33467,1.30971-1.002A1.63652,1.63652,0,0,1,87.303,30.82385c1.49751,0,2.26973.71628,2.26973,2.053v1.57544c-5.054,1.76624-6.013,2.12489-6.10692,4.034a2.37445,2.37445,0,0,0,2.52748,2.31569,5.18535,5.18535,0,0,0,3.60242-1.76624c.047.85915.49151,1.76624,1.45156,1.76624A3.57862,3.57862,0,0,0,93.363,39.5132Zm2.17773-.07213c0,.78822-.46853.78822-1.12288.78822h-.42159v.62038c.84217-.024,1.68433-.048,2.52649-.048.84316,0,1.66135.048,2.48053.048V39.8237h-.42157c-.65536,0-1.16985,0-1.16985-.78822v-7.066a6.16369,6.16369,0,0,1,2.71431-1.14586,1.8885,1.8885,0,0,1,2.15286,2.029v6.18285c0,.78822-.46854.78822-1.12289.78822h-.42158v.62038c.84217-.024,1.68433-.048,2.52649-.048.84316,0,1.66135.048,2.48054.048V39.8237h-.42059c-.65635,0-1.17083,0-1.17083-.78822V32.87661c0-1.86115-.70131-3.34168-2.69033-3.34168-1.56744,0-2.7143.81119-4.048,1.79022V29.77369c0-.19081-.06993-.23876-.13986-.23876a31.48558,31.48558,0,0,1-3.08892,1.14586v.45355c1.0999.45355,1.35765.69231,1.35765,1.57543Zm16.6829-.74006A3.86444,3.86444,0,0,1,109.43937,39.68a1.705,1.705,0,0,1-1.66135-1.71829c0-1.79122,3.042-2.33968,4.23478-2.8172Zm3.57945.81219a1.14886,1.14886,0,0,1-.86514.40559c-.51549,0-.84316-.38261-.84316-1.36064V31.54013c0-1.31269-1.80121-2.005-2.85416-2.005a3.98782,3.98782,0,0,0-2.10591.76324c-1.63737.86014-2.69032,1.45655-2.69032,2.72129a.428.428,0,0,0,.42157.47753c.56145,0,1.30971-.33467,1.30971-1.002a1.63652,1.63652,0,0,1,1.77823-1.67133c1.49751,0,2.26973.71628,2.26973,2.053v1.57544c-5.054,1.76624-6.013,2.12489-6.10692,4.034a2.37445,2.37445,0,0,0,2.52748,2.31569,5.18726,5.18726,0,0,0,3.60242-1.76624c.047.85915.49151,1.76624,1.45156,1.76624a3.57862,3.57862,0,0,0,2.3157-1.28872Zm4.73189-8.9522c1.63837,0,2.41061,1.67134,2.41061,3.12789,0,1.45555-.67833,2.79222-2.26975,2.79222-1.61439,0-2.19981-1.81419-2.19981-3.19882,0-1.26574.63237-2.72129,2.05895-2.72129m1.007,10.28877c1.23977,0,3.29872.19081,3.29872,1.93408,0,2.12388-2.66735,2.74427-4.09493,2.74427-1.63737,0-3.08793-.78722-3.08793-2.43458,0-2.24377,2.36266-2.24377,3.88414-2.24377m4.983-10.28877a7.75131,7.75131,0,0,1-1.35665.11988,7.33415,7.33415,0,0,1-2.26975-.40659,7.76836,7.76836,0,0,0-2.059-.33367c-2.87814,0-4.37565,1.59941-4.37565,3.67634a3.44307,3.44307,0,0,0,2.19981,3.17484,19.07667,19.07667,0,0,1-1.94207,1.19282,2.07633,2.07633,0,0,0-.0939.76424c0,1.09791,1.07593,1.79022,2.059,2.07693v.048c-1.42758.28572-2.73728,1.21779-2.73728,2.74527,0,1.28872,1.45056,2.67335,4.4216,2.67335,4.984,0,6.20084-3.65237,6.20084-4.58345,0-1.79022-1.19381-2.4106-3.20581-2.4106-.93508,0-2.08193-.024-3.22879-.024-1.54447,0-1.63738-.74026-1.63738-1.0979a1.3984,1.3984,0,0,1,.70131-1.21779,6.76739,6.76739,0,0,0,1.28772.14286c2.90112,0,4.32869-1.93308,4.32869-3.67635a2.97493,2.97493,0,0,0-.60839-1.81419l2.3157.0959Zm1.78852,2.93568c.28073-1.71829,1.26374-2.79222,2.69032-2.79222a2.00658,2.00658,0,0,1,2.036,2.19581c0,.28672-.06994.59641-.65435.59641Zm6.50453.76424.21079-.14286a2.6998,2.6998,0,0,0,.023-.42957,3.74613,3.74613,0,0,0-3.95406-3.74827c-1.63738,0-4.72629,1.38462-4.72629,6.064,0,1.52748.74925,5.20282,4.46954,5.20282,1.91809,0,3.25178-1.24076,4.3277-2.69631l-.32667-.33467a4.45668,4.45668,0,0,1-3.15886,1.59941c-1.87215,0-3.29872-1.86215-3.43957-4.1299a6.11458,6.11458,0,0,1,0-1.38462Zm1.89172,5.17985c0,.78822-.46854.78822-1.12289.78822h-.49152v.62038c.91211-.024,1.75526-.048,2.59642-.048.84317,0,1.66136.048,2.48054.048V39.8234h-.42158c-.65435,0-1.16984,0-1.16984-.78822v-7.066a6.084,6.084,0,0,1,2.76126-1.14586c1.73128,0,2.036,1.43257,2.036,2.93608v5.27575c0,.78822-.46853.78822-1.12288.78822h-.42158v.62038c.84217-.024,1.68432-.048,2.52648-.048s1.68532.048,2.50351.048V39.8234h-.42057c-.65536,0-1.19382,0-1.19382-.78822v-7.066a6.084,6.084,0,0,1,2.76126-1.14586c1.73128,0,2.036,1.43257,2.036,2.93608v5.27575c0,.78822-.46853.78822-1.12388.78822h-.42158v.62038c.84316-.024,1.68532-.048,2.52749-.048s1.66134.048,2.4096.048V39.8234h-.35065c-.65435,0-1.16984,0-1.16984-.78822v-6.1349c0-1.74227-.74925-3.36565-2.78423-3.36565-1.68432,0-2.76125.979-4.024,1.83817a2.352,2.352,0,0,0-2.48054-1.83817c-1.68431,0-2.76025.85914-4.048,1.79022V29.8693c0-.19081-.046-.33467-.16383-.33467a.80654.80654,0,0,0-.42058.11988c-.11689.07093-1.40361.52548-2.50351.85914v.38163c.86514.47752,1.21679.62038,1.21679,1.67133Zm18.63316-5.94409c.28073-1.71829,1.26374-2.79222,2.69032-2.79222a2.00658,2.00658,0,0,1,2.036,2.19581c0,.28672-.06993.59641-.65535.59641Zm6.50453.76424.21079-.14286a2.6998,2.6998,0,0,0,.023-.42957,3.74667,3.74667,0,0,0-3.95406-3.74827c-1.63738,0-4.7263,1.38462-4.7263,6.064,0,1.52748.74926,5.20282,4.46956,5.20282,1.91809,0,3.25177-1.24076,4.32769-2.69631l-.32667-.33467a4.45666,4.45666,0,0,1-3.15886,1.59941c-1.87215,0-3.29872-1.86215-3.43957-4.1299a6.11458,6.11458,0,0,1,0-1.38462Zm1.90093,5.18015c0,.78822-.46754.78822-1.12289.78822h-.42158v.62038c.84217-.024,1.68532-.048,2.52648-.048.84317,0,1.66136.048,2.48054.048V39.8237h-.42158c-.65435,0-1.16984,0-1.16984-.78822v-7.066a6.16364,6.16364,0,0,1,2.71431-1.14586,1.88849,1.88849,0,0,1,2.15285,2.029v6.18285c0,.78822-.46753.78822-1.12289.78822h-.42157v.62038c.84216-.024,1.68532-.048,2.52649-.048.84316,0,1.66134.048,2.48053.048V39.8237h-.42058c-.65536,0-1.17084,0-1.17084-.78822V32.87661c0-1.86115-.70131-3.34168-2.69033-3.34168-1.56744,0-2.71429.81119-4.048,1.79022V29.77369c0-.19081-.06993-.23876-.13987-.23876a31.56736,31.56736,0,0,1-3.08791,1.14586v.45355c1.0989.45355,1.35665.69231,1.35665,1.57543Zm12.97689-7.85339H180V29.89237h-3.48553V27.45779h-.28073a10.19178,10.19178,0,0,1-3.13488,3.34168v.38262h1.54447v7.40064a1.98481,1.98481,0,0,0,2.22179,2.21879,4.42337,4.42337,0,0,0,3.11189-1.62238l-.35065-.35865a2.2986,2.2986,0,0,1-1.63736.69231c-.63238,0-1.47453-.42957-1.47453-2.005ZM8.85869,17.83187c-4.001,0-6.06-4.89414-6.06-8.52253,0-4.3207,2.15285-7.32771,5.56846-7.32771,4.001,0,6.06,4.89313,6.06,8.52152,0,4.32071-2.15186,7.32872-5.56846,7.32872M8.6479,1.21739A8.60157,8.60157,0,0,0,.22528,10.00165,8.56791,8.56791,0,0,0,8.578,18.59511a8.60158,8.60158,0,0,0,8.42262-8.78427A8.5679,8.5679,0,0,0,8.6479,1.21739m12.88788,6.469V4.27275c0-.979.13986-2.69732,1.56645-2.69732a1.58855,1.58855,0,0,1,.7962.16684,1.58968,1.58968,0,0,0,.7013.16783c.56245,0,.81919-.4066.81919-.93208C25.41892.0949,24.76457,0,24.366,0a4.704,4.704,0,0,0-2.83019,1.64636A8.17511,8.17511,0,0,0,19.66364,7.066c0,.8112-1.0999,1.16984-1.63737,1.50351v.40659h1.63737v7.87717c0,.35764-.11688.76324-.983.76324h-.88911v.62138c.959-.024,1.94207-.048,2.90111-.048,1.006,0,1.989.024,2.995.048v-.62138H22.63469c-.51449,0-1.09891,0-1.09891-.57243v-8.068h2.97105V7.68635Zm6.82621,0V4.27275c0-.979.13986-2.69732,1.56745-2.69732a1.58418,1.58418,0,0,1,.7952.16684,1.5909,1.5909,0,0,0,.70231.16783c.56144,0,.81818-.4066.81818-.93208,0-.88312-.65435-.978-1.053-.978A4.70408,4.70408,0,0,0,28.362,1.64636,8.18038,8.18038,0,0,0,26.48986,7.066c0,.8112-1.09991,1.16984-1.63738,1.50351v.40659h1.63738v7.87717c0,.35764-.11689.76324-.983.76324h-.88911v.62138c.96-.024,1.94207-.048,2.90211-.048,1.005,0,1.988.024,2.995.048v-.62138H29.4619c-.51549,0-1.09991,0-1.09991-.57243v-8.068H31.333V7.68635Zm6.92422-4.03458A1.18054,1.18054,0,0,0,36.43207,2.458a1.15458,1.15458,0,0,0-1.14586-1.14487A1.20413,1.20413,0,0,0,34.13935,2.458a1.2138,1.2138,0,0,0,1.14686,1.19381M32.7827,18.23726c.86514-.024,1.7073-.04695,2.55046-.04695.84217,0,1.66135.04695,2.45656.04695v-.62038h-.3986c-.65435,0-1.16884,0-1.16884-.78822V7.66278c0-.19081-.04695-.33467-.16384-.33467a.80977.80977,0,0,0-.42158.11988c-.09391.07093-1.4036.52548-2.50351.85915v.38162c.86614.47752,1.21679.62038,1.21679,1.67134v6.46856c0,.78822-.46754.78822-1.12288.78822H32.7827Zm13.65872-2.52988a4.292,4.292,0,0,1-2.85516,1.12188c-2.54947,0-4.09393-2.17284-4.09393-4.63139,0-1.8142,1.05295-4.10492,3.06495-4.10492,2.19981,0,2.15286,1.93308,3.13488,1.93308a.95224.95224,0,0,0,.88912-1.05c0-1.26574-1.965-1.64736-3.15786-1.64736-3.36965,0-5.80323,2.86415-5.80323,6.32571a5.03822,5.03822,0,0,0,4.65637,4.94109A6.1632,6.1632,0,0,0,46.839,16.113Zm2.5087-4.82271c.28072-1.71829,1.26374-2.79222,2.69032-2.79222a2.00659,2.00659,0,0,1,2.036,2.19582c0,.28671-.06993.5964-.65435.5964Zm6.50453.76424.21079-.14285a2.69883,2.69883,0,0,0,.023-.42958,3.74669,3.74669,0,0,0-3.95407-3.74827c-1.63737,0-4.7263,1.38462-4.7263,6.064,0,1.52748.74926,5.20283,4.46856,5.20283,1.91909,0,3.25276-1.24077,4.32869-2.69632l-.32767-.33467a4.45264,4.45264,0,0,1-3.15786,1.59941c-1.87214,0-3.29872-1.86215-3.43958-4.12989a6.11725,6.11725,0,0,1,0-1.38463Zm12.11765,6.326c-2.45656,0-3.48553-3.24677-3.48553-5.20382,0-2.053.91209-4.82221,3.22778-4.82221,2.48054,0,3.51051,3.24678,3.51051,5.20383,0,2.053-.91309,4.8222-3.25276,4.8222M67.29158,7.32851a5.45,5.45,0,0,0-5.35767,5.68135,5.44615,5.44615,0,0,0,5.66136,5.58544A5.55949,5.55949,0,0,0,72.97692,12.914a5.388,5.388,0,0,0-5.68534-5.58545m9.39745.35784V4.27275c0-.979.14087-2.69732,1.56744-2.69732a1.58427,1.58427,0,0,1,.79522.16684,1.59834,1.59834,0,0,0,.70229.16783c.56145,0,.81919-.4066.81919-.93208,0-.88312-.65535-.978-1.054-.978A4.704,4.704,0,0,0,76.689,1.64636,8.1804,8.1804,0,0,0,74.81689,7.066c0,.8112-1.09891,1.16984-1.63737,1.50351v.40659h1.63737v7.87717c0,.35764-.11688.76324-.982.76324h-.88911v.62138c.959-.024,1.94207-.048,2.90111-.048,1.006,0,1.988.024,2.995.048v-.62138h-1.053c-.51549,0-1.09991,0-1.09991-.57243v-8.068h2.971V7.68635Z" fill="#9fa6b2"/>
</svg>
