<svg xmlns="http://www.w3.org/2000/svg" viewBox="0 0 218 60">
  <g>
    <path d="M205.5,46.2a9.49,9.49,0,0,0,6.1-2.7v1.4a2.20185,2.20185,0,0,0,.1.8.6338.6338,0,0,0,.6.5h0a19.75281,19.75281,0,0,0,2.6-.8,22.22973,22.22973,0,0,1,2.8-.8h.2V43.3H217a2.62177,2.62177,0,0,1-1.5-.2c-.2-.1-.3-.4-.3-1.3v-27c0-.3-.1-.8-.6-.8a3.12816,3.12816,0,0,0-1,.5,20.8772,20.8772,0,0,1-4.1,1.7l-.2.1v1l.2.1c1.6.5,1.9.3,2,2.9v6.8a10.275,10.275,0,0,0-13.2,6.2,9.77868,9.77868,0,0,0-.6,3.8C197.7,41.8,200.5,46.2,205.5,46.2Zm2-17.8c1.7,0,4.1.7,4.1,3.5v9.3c0,.6-.6,1.2-1.4,1.5a4.64526,4.64526,0,0,1-2.3.6c-3.5,0-6.2-3.2-6.2-7.6,0-5.3,3-7.3,5.8-7.3Z" fill="#fff"/>
    <path d="M193.1,43.9c-.3-.1-.4-.3-.4-1V32.4a6.99247,6.99247,0,0,0-1.1-4.2,4.38473,4.38473,0,0,0-3.8-1.8c-2.7,0-4.6,1.3-6.8,2.8V27a.90143.90143,0,0,0-.1-.5.51951.51951,0,0,0-.4-.2h-.1a47.6349,47.6349,0,0,1-5.3,1.9l-.2.1v1.1l.1.1c1.9.8,2.2,1,2.2,2.5V43a1.17526,1.17526,0,0,1-.4,1,2.87886,2.87886,0,0,1-1.3.1h-.9v1.5h.2c1.5,0,2.9-.1,4.4-.1s2.9.1,4.3.1h.2V44.1h-1a5.283,5.283,0,0,1-1.3-.1c-.3-.1-.4-.3-.4-1V31.1a9.32654,9.32654,0,0,1,4.5-1.8c2.2,0,3.5,1,3.5,3.2V43a1.17529,1.17529,0,0,1-.4,1,2.87891,2.87891,0,0,1-1.3.1h-1v1.5h.2c1.5,0,2.9-.1,4.4-.1s2.9.1,4.3.1h.2V44.1h-1A2.95338,2.95338,0,0,1,193.1,43.9Z" fill="#fff"/>
    <path d="M156.4,33.8c1,0,2.5-.6,2.5-1.9a2.56183,2.56183,0,0,1,2.5-2.6h.3c2.5,0,3.7,1.1,3.7,3.3V35c-4.3,1.5-6.9,2.4-8.4,3.3a4.13341,4.13341,0,0,0-2.2,3.7,4.35494,4.35494,0,0,0,4.5,4.2h.1c2.4,0,4.3-1.2,6.1-2.7a2.75418,2.75418,0,0,0,2.7,2.7c1.7,0,3-1.2,4.2-2.3l.1-.1-.1-.2-.5-1-.2.3a1.61246,1.61246,0,0,1-1.3.6c-.7,0-1.2-.4-1.2-2.1V30.2c-.1-2.5-3.3-3.6-5.2-3.6-1.6,0-2.4.6-3.8,1.3-2.8,1.5-4.8,2.5-4.8,4.8a1.0278,1.0278,0,0,0,1,1.1Zm9,7.8c-1.3,1.2-2.5,2.2-4.2,2.2a2.60572,2.60572,0,0,1-2.6-2.7c-.1-2.6,4.6-3.7,6.9-4.5v5Z" fill="#fff"/>
    <path d="M149.4,43.9c-.3-.1-.4-.3-.4-1v-28a.7493.7493,0,0,0-.1-.5.54993.54993,0,0,0-.5-.3,3.12826,3.12826,0,0,0-1,.5,20.87712,20.87712,0,0,1-4.1,1.7l-.2.1v1l.2.1c1.6.5,1.9.3,2,2.9V43a1.17526,1.17526,0,0,1-.4,1,2.87886,2.87886,0,0,1-1.3.1h-1v1.5h.2c1.5,0,3-.1,4.4-.1,1.5,0,2.9.1,4.3.1h.2V44.1h-.9A3.17821,3.17821,0,0,1,149.4,43.9Z" fill="#fff"/>
    <path d="M137.6,42.3l-6.7-7.4,4.3-3.9a6.442,6.442,0,0,1,4.9-2.2h.2V27.3h-.2c-1.3,0-2.5.1-3.8.1-1.4,0-2.9,0-4.3-.1h-.2v1.5h.2a4.86868,4.86868,0,0,1,1.2.1c.4.1.6.2.6.5a5.5466,5.5466,0,0,1-1.5,1.9L128,35.1l-.9.2V14.9c0-.3-.1-.8-.6-.8a3.12806,3.12806,0,0,0-1,.5,20.87737,20.87737,0,0,1-4.1,1.7l-.2.1v1l.2.1c1.6.5,1.9.3,2,2.9V43a1.17526,1.17526,0,0,1-.4,1,2.87888,2.87888,0,0,1-1.3.1h-1v1.5h.2c1.5,0,2.9-.1,4.4-.1s2.9.1,4.3.1h.2V44.1h-1a5.283,5.283,0,0,1-1.3-.1c-.3-.1-.4-.3-.4-1V36.7h.5l6.4,7.2c.4.5.9,1.1,1.3,1.6l.1.1h.1c.9,0,1.8-.1,2.7-.1a31.12282,31.12282,0,0,1,3.2.1h.2V44.1h-.2C139.3,44.1,139.2,44,137.6,42.3Z" fill="#fff"/>
    <path d="M116.8,26.6c-2.4,0-4,2.2-5,3.7v-3a1.26834,1.26834,0,0,0-.1-.6.76383.76383,0,0,0-.5-.2,7.74079,7.74079,0,0,0-1.6.7c-.8.4-2,1-3.4,1.6l-.2.2v.9l.1.1c.7.4,2,.6,2,1.6V43a1.17526,1.17526,0,0,1-.4,1,2.87891,2.87891,0,0,1-1.3.1H105v1.5h.2c1.5,0,3.2-.1,4.8-.1,1.7,0,3.4,0,5.7.1h.2V44.1h-2.5a5.702,5.702,0,0,1-1.3-.1c-.3-.1-.4-.3-.4-1V33.5a3.1943,3.1943,0,0,1,1.1-2.4,2.92833,2.92833,0,0,1,1.6-.7,2.00984,2.00984,0,0,1,1.3.4,2.38933,2.38933,0,0,0,1.4.5,2.15932,2.15932,0,0,0,2.1-2.3h0a2.25679,2.25679,0,0,0-2.4-2.4Z" fill="#fff"/>
    <path d="M86.6,33.8c1,0,2.5-.6,2.5-1.9a2.56183,2.56183,0,0,1,2.5-2.6h.3c2.5,0,3.7,1.1,3.7,3.3V35c-4.3,1.5-6.9,2.4-8.4,3.3A4.13339,4.13339,0,0,0,85,42a4.35493,4.35493,0,0,0,4.5,4.2h.2c2.4,0,4.3-1.2,6.1-2.7a2.75417,2.75417,0,0,0,2.7,2.7c1.7,0,3-1.2,4.2-2.3l.1-.1-.1-.2-.5-1-.2.4a1.61246,1.61246,0,0,1-1.3.6c-.7,0-1.2-.4-1.2-2.1V30.3c-.1-2.5-3.3-3.6-5.2-3.6-1.6,0-2.4.6-3.8,1.3-2.8,1.5-4.8,2.5-4.8,4.8a.91924.91924,0,0,0,.9,1Zm9.1,7.8c-1.3,1.2-2.5,2.2-4.2,2.2a2.60572,2.60572,0,0,1-2.6-2.7c-.1-2.6,4.6-3.7,6.9-4.5v5Z" fill="#fff"/>
    <path d="M75.2,16.8c-1.7,0-3.1.1-4.5.1-1.8,0-3.7,0-5.5-.1h-.3v1.5h.2c1.5,0,2.3.2,2.7.7a5.165,5.165,0,0,1,.6,3V41.3c0,1.4-.4,2-.9,2.3A7.26692,7.26692,0,0,1,65,44h-.2v1.5H65c2,0,3.9-.1,5.9-.1,1.8,0,3.5.1,5.5.1h.2V44h-.2a5.69471,5.69471,0,0,1-2.6-.4c-.6-.3-.9-.9-.9-2.3V18.7a7.56868,7.56868,0,0,1,1.5-.1c2.6,0,6.4,1.5,6.4,7,0,2.9-1.5,6.1-4.8,6.1a7.56868,7.56868,0,0,1-1.5-.1h-.3v1.9h2.3c4.4,0,9-3.4,9-8.4C85.7,18.6,79.5,16.8,75.2,16.8Z" fill="#fff"/>
  </g>
  <rect width="57.1" height="60" fill="#fff"/>
  <path d="M29.7,15.9l9-5.8c.2-.1.2-.3.1-.5h0c-.1-.2-.3-.2-.5-.1s-8.7,5.4-8.7,5.4a1.09986,1.09986,0,0,0-.6-1L20.6,9.4a1.0794,1.0794,0,0,0-1.5.5h0a1.0794,1.0794,0,0,0,.5,1.5h0s7.9,4.2,8.4,4.5A1.7072,1.7072,0,0,0,29.7,15.9Z" fill="#542987"/>
  <path d="M29.7,20.3l9-5.8c.2-.1.2-.3.1-.5h0c-.1-.2-.3-.2-.5-.1s-8.7,5.4-8.7,5.4a1.09986,1.09986,0,0,0-.6-1l-8.4-4.5a1.0794,1.0794,0,0,0-1.5.5h0a1.0794,1.0794,0,0,0,.5,1.5S27.5,20,28,20.3A1.34688,1.34688,0,0,0,29.7,20.3Z" fill="#542987"/>
  <path d="M29.7,24.8l9-5.8c.2-.1.2-.3.1-.5h0c-.1-.2-.3-.2-.5-.1s-8.7,5.4-8.7,5.4a1.09986,1.09986,0,0,0-.6-1l-8.4-4.5a1.0794,1.0794,0,0,0-1.5.5h0a1.0794,1.0794,0,0,0,.5,1.5h0s7.9,4.2,8.4,4.5A1.7072,1.7072,0,0,0,29.7,24.8Z" fill="#542987"/>
  <path d="M29.7,29.2,48.6,17.1c.2-.1.2-.3.1-.5h0c-.1-.2-.3-.2-.5-.1S29.5,28.2,29.5,28.2a1.09986,1.09986,0,0,0-.6-1L10,17.2a1.0794,1.0794,0,0,0-1.5.5h0A1.0794,1.0794,0,0,0,9,19.2H9s18.3,9.7,18.9,10A1.49813,1.49813,0,0,0,29.7,29.2Z" fill="#542987"/>
  <path d="M29.7,33.6,48.6,21.5c.2-.1.2-.3.1-.5h0c-.1-.2-.3-.2-.5-.1-.2.2-18.7,11.8-18.7,11.8a1.09986,1.09986,0,0,0-.6-1L10,21.7a1.0794,1.0794,0,0,0-1.5.5h0A1.0794,1.0794,0,0,0,9,23.7H9s18.3,9.7,18.9,10A1.688,1.688,0,0,0,29.7,33.6Z" fill="#542987"/>
  <path d="M29.7,38.1,48.5,26c.2-.1.2-.3.1-.5h0c-.1-.2-.3-.2-.5-.1-.1.1-18.6,11.7-18.6,11.7a1.09986,1.09986,0,0,0-.6-1L10,26.1a1.0794,1.0794,0,0,0-1.5.5h0A1.0794,1.0794,0,0,0,9,28.1s18.3,9.7,18.9,10A1.49813,1.49813,0,0,0,29.7,38.1Z" fill="#542987"/>
  <path d="M29.7,42.5l9-5.8c.2-.1.2-.3.1-.5h0c-.1-.2-.3-.2-.5-.1s-8.7,5.4-8.7,5.4a1.09986,1.09986,0,0,0-.6-1L20.6,36a1.0794,1.0794,0,0,0-1.5.5h0a1.0794,1.0794,0,0,0,.5,1.5s7.9,4.2,8.4,4.5A1.34688,1.34688,0,0,0,29.7,42.5Z" fill="#542987"/>
  <path d="M29.7,47l9-5.8c.2-.1.2-.3.1-.5h0c-.1-.2-.3-.2-.5-.1S29.6,46,29.6,46a1.09986,1.09986,0,0,0-.6-1l-8.4-4.5a1.0794,1.0794,0,0,0-1.5.5h0a1.0794,1.0794,0,0,0,.5,1.5S27.5,46.7,28,47A1.34688,1.34688,0,0,0,29.7,47Z" fill="#542987"/>
  <path d="M29.7,51.4l9-5.8c.2-.1.2-.3.1-.5h0c-.1-.2-.3-.2-.5-.1s-8.7,5.4-8.7,5.4a1.09985,1.09985,0,0,0-.6-1L20.5,45a1.0794,1.0794,0,0,0-1.5.5h0a1.0794,1.0794,0,0,0,.5,1.5s7.9,4.2,8.4,4.5A1.688,1.688,0,0,0,29.7,51.4Z" fill="#542987"/>
</svg>
